<?xml version="1.0" encoding="UTF-8" ?>
<!DOCTYPE svg PUBLIC "-//W3C//DTD SVG 1.1//EN" "http://www.w3.org/Graphics/SVG/1.1/DTD/svg11.dtd">
<svg width="500pt" height="200pt" viewBox="0 0 500 200" version="1.1" xmlns="http://www.w3.org/2000/svg">
<path fill="#ffffff" d=" M 0.00 0.00 L 500.00 0.00 L 500.00 200.00 L 0.00 200.00 L 0.00 0.00 Z" />
<path fill="#ff8b6d" d=" M 465.66 2.01 C 471.12 2.03 476.58 1.94 482.05 2.02 C 489.21 1.97 495.82 8.02 496.47 15.14 C 496.68 18.70 496.50 22.27 496.67 25.83 C 486.35 26.35 476.01 25.94 465.69 26.05 C 465.56 18.03 465.62 10.02 465.66 2.01 Z" />
<path fill="#ff8b6d" d=" M 124.98 41.12 C 136.56 33.91 150.79 33.44 164.01 34.31 C 174.94 35.22 186.57 37.41 195.05 44.89 C 201.41 50.29 204.77 58.64 204.68 66.91 C 204.69 80.94 204.71 94.97 204.67 109.00 C 204.54 119.48 202.63 130.57 195.87 138.95 C 188.08 149.64 174.81 154.88 161.99 156.06 C 150.91 157.02 139.34 158.22 128.65 154.35 C 120.77 151.45 112.92 146.62 109.21 138.77 C 104.82 129.52 104.53 118.77 106.37 108.85 C 107.83 101.21 112.58 94.28 119.44 90.52 C 130.06 83.73 142.75 82.13 154.95 80.42 C 161.26 79.36 168.25 78.58 173.17 74.08 C 177.30 70.28 175.65 62.54 170.35 60.69 C 162.30 57.75 153.11 56.92 144.97 60.00 C 141.68 61.17 139.51 64.06 137.90 67.01 C 128.10 67.13 118.30 67.03 108.49 67.06 C 109.45 56.41 115.97 46.71 124.98 41.12 Z" />
<path fill="#ff8b6d" d=" M 224.33 47.29 C 244.95 32.38 274.53 29.10 296.87 42.13 C 309.79 49.76 315.97 64.79 318.53 78.94 C 321.06 95.70 320.17 113.51 313.16 129.13 C 307.89 140.79 298.41 151.13 285.96 155.03 C 276.46 157.96 265.98 157.66 256.58 154.49 C 249.16 152.03 243.20 146.46 239.16 139.89 C 238.93 154.25 239.14 168.62 239.06 182.98 C 239.58 190.89 233.12 198.66 225.09 198.95 C 219.73 199.14 214.37 199.31 209.01 199.06 C 209.01 161.04 208.95 123.03 209.04 85.01 C 209.33 71.28 212.92 56.08 224.33 47.29 Z" />
<path fill="#ff8b6d" d=" M 342.33 50.34 C 355.56 38.65 374.09 35.55 391.21 36.00 C 391.28 46.68 391.29 57.35 391.21 68.02 C 383.34 68.32 375.01 67.09 367.63 70.53 C 363.08 72.44 359.61 76.39 357.96 80.99 C 355.86 86.41 355.91 92.31 355.93 98.03 C 355.94 117.03 355.94 136.03 355.93 155.03 C 345.63 155.09 335.32 155.07 325.02 155.04 C 325.00 134.68 324.96 114.32 325.03 93.96 C 325.23 78.04 330.14 61.23 342.33 50.34 Z" />
<path fill="#ff8b6d" d=" M 411.87 49.86 C 425.11 38.59 443.32 35.54 460.22 36.02 C 460.25 46.70 460.33 57.38 460.18 68.05 C 451.39 68.25 441.74 66.90 433.97 71.98 C 427.00 76.41 424.99 85.30 424.96 93.04 C 424.90 113.71 424.96 134.38 424.93 155.05 C 414.63 155.07 404.33 155.07 394.03 155.05 C 394.01 134.33 393.93 113.62 394.07 92.91 C 394.41 77.09 399.60 60.48 411.87 49.86 Z" />
<path fill="#ff8b6d" d=" M 4.61 36.98 C 36.68 37.06 68.76 36.93 100.84 37.04 C 100.80 44.35 100.80 51.65 100.84 58.96 C 100.71 60.33 101.17 62.01 100.04 63.09 C 79.63 85.05 59.03 106.85 38.78 128.95 C 60.18 129.07 81.59 128.97 102.99 129.00 C 103.00 137.67 103.01 146.33 102.99 155.00 C 68.99 154.99 35.00 155.02 1.00 154.99 C 0.89 147.06 0.78 139.13 1.06 131.20 C 22.08 107.91 42.94 84.48 63.94 61.17 C 48.95 60.87 33.95 61.21 18.96 61.01 C 12.55 60.97 6.30 56.31 4.88 49.99 C 4.19 45.69 4.53 41.31 4.61 36.98 Z" />
<path fill="#ff8b6d" d=" M 465.68 36.57 C 471.10 36.48 476.54 36.45 481.97 36.55 C 489.60 36.51 496.44 43.35 496.54 50.95 C 496.66 85.58 496.43 120.23 496.66 154.86 C 486.34 155.29 476.00 154.99 465.67 155.03 C 465.59 115.54 465.59 76.05 465.68 36.57 Z" />
<path fill="#ffffff" d=" M 258.44 60.57 C 266.14 59.05 274.92 60.72 280.42 66.64 C 287.03 73.69 288.89 83.72 289.26 93.05 C 289.63 103.54 288.26 114.95 281.35 123.33 C 272.90 133.95 254.46 133.35 246.39 122.57 C 239.68 114.32 238.82 103.10 239.10 92.89 C 239.43 84.09 240.73 74.57 246.61 67.61 C 249.60 63.99 253.85 61.51 258.44 60.57 Z" />
<path fill="#ffffff" d=" M 163.12 99.84 C 167.53 98.77 171.68 96.89 175.98 95.48 C 175.70 103.45 176.90 111.89 173.35 119.34 C 170.15 126.58 162.89 131.50 155.13 132.55 C 149.72 133.23 143.62 133.41 138.95 130.14 C 131.20 123.92 132.74 109.00 142.41 105.46 C 148.95 102.42 156.27 101.90 163.12 99.84 Z" />
</svg>
