<?xml version="1.0" encoding="utf-8"?>
<!-- Generator: Adobe Illustrator 17.0.0, SVG Export Plug-In . SVG Version: 6.00 Build 0)  -->
<!DOCTYPE svg PUBLIC "-//W3C//DTD SVG 1.1//EN" "http://www.w3.org/Graphics/SVG/1.1/DTD/svg11.dtd">
<svg version="1.1" id="Layer_1" xmlns:sketch="http://www.bohemiancoding.com/sketch/ns"
	 xmlns="http://www.w3.org/2000/svg" xmlns:xlink="http://www.w3.org/1999/xlink" x="0px" y="0px" width="300px" height="390px"
	 viewBox="729 601 300 390" enable-background="new 729 601 300 390" xml:space="preserve">
<title>iPhone Wireframe</title>
<description>Created with Sketch (http://www.bohemiancoding.com/sketch)</description>
<g>
	<path fill="#1B1B1B" d="M1029,972.25c0,10.312-8.438,18.75-18.75,18.75h-262.5c-10.312,0-18.75-8.438-18.75-18.75v-352.5
		c0-10.312,8.438-18.75,18.75-18.75h262.5c10.312,0,18.75,8.438,18.75,18.75V972.25z"/>
</g>
<rect x="762" y="639.5" fill="#27AE60" width="234" height="313"/>
<g id="Home_Button_1_">
	<path id="Oval_2_1_" fill="#393939" d="M879,981.625c5.592,0,10.125-4.533,10.125-10.125s-4.533-10.125-10.125-10.125
		s-10.125,4.533-10.125,10.125S873.408,981.625,879,981.625z"/>
	<path id="Rectangle_9_1_" fill="#393939" stroke="#CECECE" stroke-width="0.5786" d="M876.541,967.595
		c-0.799,0-1.446,0.647-1.446,1.446v4.918c0,0.799,0.647,1.446,1.446,1.446h4.918c0.799,0,1.446-0.647,1.446-1.446v-4.918
		c0-0.799-0.647-1.446-1.446-1.446H876.541z"/>
</g>
<g id="Camera__x2F__Speaker_1_">
	<path id="Oval_1_1_" fill="#393939" d="M879,625.809c1.45,0,2.625-1.175,2.625-2.625c0-1.45-1.175-2.625-2.625-2.625
		s-2.625,1.175-2.625,2.625C876.375,624.634,877.55,625.809,879,625.809z"/>
</g>
<g>
	<g>
		<path fill="none" stroke="#FFFFFF" stroke-linecap="round" stroke-miterlimit="10" d="M789.778,817.34
			c7.322-1.408,13.171-1.814,20.514-0.401c6.041,1.161,12.031,2.602,18.223,2.602c13.176,0,26.731-6.015,39.299-9.762
			c6.325-1.886,12.413-4.687,18.353-7.527c6.228-2.979,4.749-11.079-2.11-11.795c-5.935-0.62-12.518,2.544-18.031,4.273
			c-6.638,2.08-12.68,3.117-19.552,1.644"/>
		<path fill="none" stroke="#FFFFFF" stroke-linecap="round" stroke-miterlimit="10" d="M853.643,797.054
			c-0.712-2.071-2.024-3.017-0.835-4.973c0.997-1.641,0.687-4.563,1.893-5.77c2.898-2.898,5.847-6.158,9.899-7.084
			c4.265-0.974,7.381-2.569,11.539-1.271c4.746,1.482,8.061,3.226,12.917,1.253c6.722-2.73-1.565-5.648-3.857-7.145
			c-3.59-2.345-8.198-4.519-12.226-6.024c-4.379-1.636-8.579-0.192-12.979,1.334c-4.362,1.513-9.291,1.145-13.854,1.248"/>
		<path fill="none" stroke="#FFFFFF" stroke-linecap="round" stroke-miterlimit="10" d="M794.139,782.789
			c11.823-4.214,25.011-7.193,35.833-13.75c5.962-3.612,10.382-2.742,16.88-3.968c5.179-0.977,13.641-3.827,17.718,0.857"/>
		
			<line fill="none" stroke="#FFFFFF" stroke-linecap="round" stroke-miterlimit="10" x1="853.981" y1="787.675" x2="882.531" y2="779.873"/>
		
			<line fill="none" stroke="#FFFFFF" stroke-linecap="round" stroke-miterlimit="10" x1="857.061" y1="783.956" x2="857.927" y2="786.596"/>
		
			<line fill="none" stroke="#FFFFFF" stroke-linecap="round" stroke-miterlimit="10" x1="863.677" y1="779.487" x2="865.958" y2="784.402"/>
		
			<line fill="none" stroke="#FFFFFF" stroke-linecap="round" stroke-miterlimit="10" x1="873.984" y1="777.517" x2="875.631" y2="781.758"/>
		<path fill="none" stroke="#FFFFFF" stroke-linecap="round" stroke-miterlimit="10" d="M891.329,777.746l2.55-0.822
			c0,0,1.281-0.375,1.656,0.219l5.188,6.875c0,0,1.031,1.406-0.5,1.781l-15.218,4.81"/>
		<path fill="none" stroke="#FFFFFF" stroke-linecap="round" stroke-miterlimit="10" d="M901.062,784.956l2.744,10.75
			c0,0,0.417,1.5-1,1.75l-18.832,5.837"/>
		<path fill="none" stroke="#FFFFFF" stroke-linecap="round" stroke-miterlimit="10" d="M853.05,814.604l0.931,2.352
			c0,0,0.491,0.812,1.429,0.312l48.454-14.875c0,0,1.358-0.062,1.046-1.75l-1.046-4.25"/>
		<path fill="none" stroke="#FFFFFF" stroke-linecap="round" stroke-miterlimit="10" d="M848.656,815.984l-5.017,9.139
			c0,0-0.667,1.333,0.917,0.833l66.1-20.768"/>
		<path fill="none" stroke="#FFFFFF" stroke-linecap="round" stroke-miterlimit="10" d="M914.889,803.956l3.833-1.166
			c0,0,0.833-0.417,0.5-1.75l-4.833-8.417c0,0-0.417-0.917-2.25-0.417l-8.5,2.847"/>
		<path fill="none" stroke="#FFFFFF" stroke-linecap="round" stroke-miterlimit="10" d="M873.056,827.29l-25.583,7.75
			c-3,0.917-3.583,0-3.583,0l-3.945-5.75c-0.778-1.416,0-2.584,0-2.584l6.195-9.99"/>
		
			<line fill="none" stroke="#FFFFFF" stroke-linecap="round" stroke-miterlimit="10" x1="887.669" y1="822.873" x2="897.722" y2="819.54"/>
		<path fill="none" stroke="#FFFFFF" stroke-linecap="round" stroke-miterlimit="10" d="M903.247,793.512l9.976-3.135
			c0,0,2.751-0.861,4.417,1.567l5.583,9.095c0,0,1.19,1.483,0.855,4.149"/>
		<path fill="none" stroke="#FFFFFF" stroke-linecap="round" stroke-miterlimit="10" d="M902.117,789.086
			c5.017-2.164,10.614-4.596,15.896-5.896c5.61-1.381,10.965,1.384,16.5,2.4c5.927,1.088,11.442,4.491,17.496,5.522
			c5.039,0.858,11.785-3.319,16.214-5.24"/>
		<path fill="none" stroke="#FFFFFF" stroke-linecap="round" stroke-miterlimit="10" d="M962.805,828.54
			c-10.106,7.217-19.912,11.26-32.206,13.281c-2.713,0.446-6.014,1.34-8.794,0.802c-3.321-0.643-5.388-2.267-8.966-2.18
			c-2.827,0.068-5.542,0.504-8.387,0.462c-3.092-0.045-6.162-2.138-8.897-2.199c-2.434-0.055-5.236,2.067-7.667,2.417
			c-3.509,0.505-5.989-1.016-8.922-2.714c-5.108-2.956-7.248-10.497-5.17-15.866c1.6-4.134,5.69-10.704,11.105-5.62
			c4.653,4.368,2.58,10.909,0.353,16.064"/>
		<path fill="none" stroke="#FFFFFF" stroke-linecap="round" stroke-miterlimit="10" d="M887.472,826.123
			c1-0.595,11.398-2.654,6.446-5.347"/>
		<path fill="none" stroke="#FFFFFF" stroke-linecap="round" stroke-miterlimit="10" d="M893.919,830.206
			c1.152-6.322,3.922-11.599,8.086-16.469c2.731-3.193,8.986-11.525,13.926-9.322c7.47,3.331,0.854,10.685-2.302,14.033
			c-4.357,4.624-5.792,10.477-7.656,16.341"/>
		<path fill="none" stroke="#FFFFFF" stroke-linecap="round" stroke-miterlimit="10" d="M920.514,833.122
			c0.808-2.354,0.155-8.015,1.464-9.625c2.516-3.096,4.977-6.015,7.183-9.352c2.307-3.489,1.931-6.611-1.393-9.076
			c-2.712-2.011-6.676,2.396-8.414,4.137"/>
	</g>
	<g>
		<path fill="#FFFFFF" d="M825.424,741.093c0,1.201-0.304,2.121-0.909,2.76c-0.607,0.639-1.481,0.958-2.624,0.958
			c-1.119,0-2.071-0.22-2.856-0.659v-2.364c0.961,0.627,1.843,0.94,2.646,0.94c0.457,0,0.801-0.126,1.032-0.378
			s0.348-0.595,0.348-1.028c0-0.428-0.138-0.819-0.413-1.173s-0.729-0.749-1.362-1.182c-0.551-0.381-0.969-0.746-1.252-1.094
			c-0.285-0.349-0.505-0.74-0.66-1.173s-0.232-0.938-0.232-1.512c0-1.102,0.306-1.975,0.918-2.619s1.435-0.967,2.466-0.967
			c0.984,0,1.931,0.275,2.839,0.826l-0.791,1.916c-0.281-0.164-0.576-0.311-0.883-0.439c-0.309-0.129-0.638-0.193-0.989-0.193
			c-0.387,0-0.685,0.127-0.892,0.382c-0.209,0.255-0.312,0.602-0.312,1.042c0,0.434,0.124,0.812,0.373,1.134
			s0.685,0.688,1.306,1.099c0.838,0.562,1.422,1.137,1.753,1.723S825.424,740.343,825.424,741.093z"/>
		<path fill="#FFFFFF" d="M829.817,742.833c0.328,0,0.683-0.082,1.063-0.246v1.828c-0.381,0.264-0.952,0.396-1.714,0.396
			c-0.85,0-1.479-0.253-1.89-0.76s-0.615-1.267-0.615-2.281v-5.071h-0.949v-1.046l1.222-0.844l0.598-2.074h1.494v2.109h1.775v1.854
			h-1.775v5.15C829.026,742.505,829.29,742.833,829.817,742.833z"/>
		<path fill="#FFFFFF" d="M836.6,744.635l-0.466-1.336h-0.053c-0.346,0.574-0.703,0.97-1.072,1.187s-0.835,0.325-1.397,0.325
			c-0.721,0-1.288-0.27-1.7-0.809c-0.414-0.539-0.62-1.289-0.62-2.25c0-1.031,0.282-1.797,0.849-2.298
			c0.564-0.501,1.41-0.778,2.535-0.831l1.301-0.053v-0.703c0-0.914-0.396-1.371-1.187-1.371c-0.586,0-1.26,0.229-2.021,0.686
			l-0.809-1.617c0.973-0.615,2.03-0.923,3.173-0.923c1.037,0,1.826,0.297,2.369,0.892c0.541,0.595,0.812,1.437,0.812,2.527v6.574
			H836.6z M834.57,742.982c0.428,0,0.77-0.192,1.023-0.576c0.256-0.384,0.383-0.895,0.383-1.534v-0.826l-0.721,0.035
			c-0.533,0.029-0.925,0.182-1.174,0.457s-0.373,0.686-0.373,1.23C833.708,742.578,833.996,742.982,834.57,742.982z"/>
		<path fill="#FFFFFF" d="M849.475,744.635v-5.836c0-1.436-0.354-2.153-1.063-2.153c-0.516,0-0.885,0.256-1.107,0.769
			s-0.334,1.334-0.334,2.465v4.755h-2.355v-5.836c0-1.436-0.36-2.153-1.081-2.153c-0.504,0-0.87,0.255-1.099,0.765
			s-0.343,1.351-0.343,2.522v4.702h-2.338v-9.791h1.854l0.281,1.257h0.149c0.234-0.498,0.555-0.863,0.962-1.094
			s0.843-0.347,1.306-0.347c1.195,0,1.992,0.565,2.391,1.696h0.088c0.498-1.131,1.298-1.696,2.399-1.696
			c0.867,0,1.525,0.305,1.973,0.914c0.449,0.609,0.673,1.5,0.673,2.672v6.39H849.475z"/>
		<path fill="#FFFFFF" d="M857.638,744.811c-0.422,0-0.795-0.095-1.121-0.286c-0.324-0.19-0.628-0.526-0.909-1.006h-0.123
			c0.094,0.797,0.141,1.277,0.141,1.441v3.999h-2.355v-14.115h1.811l0.404,1.274h0.105c0.486-0.973,1.192-1.459,2.118-1.459
			c0.891,0,1.588,0.441,2.092,1.323s0.756,2.128,0.756,3.74c0,1.588-0.261,2.833-0.782,3.735S858.541,744.811,857.638,744.811z
			 M856.917,736.646c-0.457,0-0.787,0.212-0.988,0.637c-0.203,0.425-0.31,1.129-0.321,2.114v0.308c0,1.078,0.103,1.863,0.308,2.355
			s0.545,0.738,1.02,0.738c0.82,0,1.23-1.037,1.23-3.111c0-1.02-0.102-1.781-0.303-2.285
			C857.66,736.897,857.345,736.646,856.917,736.646z"/>
		<path fill="#FFFFFF" d="M869.148,742.833c0.328,0,0.683-0.082,1.063-0.246v1.828c-0.381,0.264-0.952,0.396-1.714,0.396
			c-0.85,0-1.479-0.253-1.89-0.76s-0.615-1.267-0.615-2.281v-5.071h-0.949v-1.046l1.222-0.844l0.598-2.074h1.494v2.109h1.775v1.854
			h-1.775v5.15C868.357,742.505,868.621,742.833,869.148,742.833z"/>
		<path fill="#FFFFFF" d="M876.01,744.635v-5.836c0-1.436-0.36-2.153-1.081-2.153c-0.539,0-0.917,0.283-1.134,0.848
			s-0.325,1.378-0.325,2.439v4.702h-2.338v-13.676h2.338V734c0,0.393-0.035,1.093-0.105,2.101h0.123
			c0.469-0.961,1.189-1.441,2.162-1.441c0.896,0,1.573,0.303,2.03,0.91s0.686,1.499,0.686,2.676v6.39H876.01z"/>
		<path fill="#FFFFFF" d="M883.419,744.811c-1.225,0-2.19-0.435-2.896-1.305s-1.059-2.102-1.059-3.696
			c0-1.617,0.32-2.88,0.958-3.788s1.529-1.362,2.672-1.362c1.066,0,1.907,0.388,2.522,1.165s0.923,1.865,0.923,3.265v1.248h-4.702
			c0.018,0.873,0.196,1.522,0.536,1.947s0.809,0.637,1.406,0.637c0.762,0,1.541-0.237,2.338-0.712v1.925
			C885.367,744.585,884.468,744.811,883.419,744.811z M883.076,736.461c-0.334,0-0.609,0.177-0.826,0.532s-0.343,0.904-0.378,1.648
			h2.373c-0.012-0.715-0.12-1.257-0.325-1.626S883.434,736.461,883.076,736.461z"/>
		<path fill="#FFFFFF" d="M896.889,741.77c0,0.955-0.28,1.701-0.839,2.237c-0.561,0.536-1.385,0.804-2.475,0.804
			c-0.967,0-1.767-0.19-2.399-0.571v-2.03c0.322,0.223,0.698,0.407,1.13,0.554c0.43,0.146,0.81,0.22,1.138,0.22
			c0.363,0,0.64-0.089,0.831-0.268c0.189-0.179,0.285-0.415,0.285-0.708c0-0.299-0.1-0.56-0.299-0.782s-0.565-0.495-1.099-0.817
			c-0.709-0.422-1.218-0.872-1.524-1.349c-0.309-0.478-0.462-1.042-0.462-1.692c0-0.832,0.286-1.491,0.856-1.978
			c0.572-0.486,1.355-0.729,2.352-0.729c0.867,0,1.685,0.229,2.452,0.686l-0.765,1.679c-0.627-0.34-1.178-0.51-1.652-0.51
			c-0.299,0-0.523,0.079-0.672,0.237c-0.15,0.158-0.225,0.352-0.225,0.58c0,0.264,0.092,0.498,0.277,0.703
			c0.184,0.205,0.528,0.46,1.032,0.765c0.609,0.369,1.037,0.683,1.283,0.94s0.437,0.551,0.571,0.879S896.889,741.33,896.889,741.77z
			"/>
		<path fill="#FFFFFF" d="M901.149,744.811c-1.166,0-2.054-0.425-2.663-1.274s-0.914-2.098-0.914-3.744
			c0-1.723,0.288-3.009,0.865-3.858s1.47-1.274,2.677-1.274c0.363,0,0.744,0.053,1.143,0.158s0.756,0.258,1.072,0.457l-0.668,1.819
			c-0.486-0.287-0.917-0.431-1.292-0.431c-0.498,0-0.857,0.259-1.076,0.778c-0.221,0.519-0.33,1.296-0.33,2.333
			c0,1.014,0.108,1.771,0.325,2.272s0.571,0.751,1.063,0.751c0.586,0,1.198-0.205,1.837-0.615v2.057
			C902.573,744.62,901.894,744.811,901.149,744.811z"/>
		<path fill="#FFFFFF" d="M908.319,734.659c0.287,0,0.568,0.044,0.844,0.132l-0.272,2.268c-0.164-0.059-0.378-0.088-0.642-0.088
			c-0.568,0-1.005,0.224-1.31,0.672s-0.457,1.1-0.457,1.956v5.036h-2.338v-9.791h1.925l0.264,1.529h0.079
			c0.258-0.615,0.539-1.055,0.844-1.318S907.915,734.659,908.319,734.659z"/>
		<path fill="#FFFFFF" d="M913.372,744.811c-1.225,0-2.19-0.435-2.896-1.305s-1.059-2.102-1.059-3.696
			c0-1.617,0.319-2.88,0.958-3.788s1.529-1.362,2.672-1.362c1.066,0,1.907,0.388,2.522,1.165s0.923,1.865,0.923,3.265v1.248h-4.702
			c0.018,0.873,0.196,1.522,0.536,1.947s0.809,0.637,1.406,0.637c0.762,0,1.541-0.237,2.338-0.712v1.925
			C915.32,744.585,914.421,744.811,913.372,744.811z M913.029,736.461c-0.334,0-0.609,0.177-0.826,0.532s-0.343,0.904-0.378,1.648
			h2.373c-0.012-0.715-0.12-1.257-0.325-1.626S913.387,736.461,913.029,736.461z"/>
		<path fill="#FFFFFF" d="M921.201,744.811c-1.225,0-2.19-0.435-2.896-1.305s-1.059-2.102-1.059-3.696
			c0-1.617,0.319-2.88,0.958-3.788s1.529-1.362,2.672-1.362c1.066,0,1.907,0.388,2.522,1.165s0.923,1.865,0.923,3.265v1.248h-4.702
			c0.018,0.873,0.196,1.522,0.536,1.947s0.809,0.637,1.406,0.637c0.762,0,1.541-0.237,2.338-0.712v1.925
			C923.149,744.585,922.25,744.811,921.201,744.811z M920.858,736.461c-0.334,0-0.609,0.177-0.826,0.532s-0.343,0.904-0.378,1.648
			h2.373c-0.012-0.715-0.12-1.257-0.325-1.626S921.216,736.461,920.858,736.461z"/>
		<path fill="#FFFFFF" d="M930.296,744.635v-5.836c0-0.709-0.085-1.245-0.255-1.608s-0.445-0.545-0.826-0.545
			c-0.504,0-0.873,0.25-1.107,0.751s-0.352,1.346-0.352,2.536v4.702h-2.338v-9.791h1.854l0.281,1.257h0.149
			c0.211-0.451,0.513-0.804,0.905-1.059s0.853-0.382,1.38-0.382c0.891,0,1.557,0.305,1.999,0.914s0.664,1.5,0.664,2.672v6.39
			H930.296z"/>
		<path fill="#FFFFFF" d="M934.073,743.431c0-0.457,0.121-0.812,0.364-1.063s0.605-0.378,1.086-0.378s0.844,0.125,1.09,0.374
			s0.369,0.605,0.369,1.068c0,0.457-0.127,0.812-0.383,1.063c-0.254,0.252-0.613,0.378-1.076,0.378
			c-0.475,0-0.835-0.127-1.081-0.382S934.073,743.882,934.073,743.431z"/>
	</g>
</g>
</svg>
